<svg id="svg" xmlns="http://www.w3.org/2000/svg" xmlns:xlink="http://www.w3.org/1999/xlink" width="400" height="400" viewBox="0, 0, 400,400"><g id="svgg">
    <path id="path0" d="M396.789 0.435 C 343.844 1.762,289.438 17.751,250.799 43.337 C 227.078 59.045,204.357 82.284,154.271 142.063 C 150.315 146.785,146.147 151.753,145.009 153.102 L 142.940 155.556 106.987 155.684 L 71.034 155.812 69.873 156.385 C 69.234 156.700,68.232 157.451,67.647 158.055 C 65.235 160.540,25.852 208.065,25.224 209.249 C 23.145 213.163,25.378 218.828,29.605 220.361 C 30.349 220.631,41.969 223.613,55.427 226.988 C 68.886 230.363,79.897 233.224,79.897 233.346 C 79.897 233.605,78.371 235.568,77.161 236.866 C 75.695 238.438,75.037 242.736,75.607 247.013 L 75.812 248.555 67.160 263.070 C 56.406 281.110,57.158 279.564,57.175 283.622 C 57.214 292.495,63.787 302.476,80.785 319.470 C 97.568 336.248,107.433 342.837,116.266 343.167 C 120.391 343.321,119.553 343.717,137.284 333.247 L 152.153 324.466 153.839 324.760 C 158.123 325.506,161.760 324.652,164.903 322.162 C 166.120 321.198,167.142 320.484,167.173 320.577 C 167.205 320.669,170.016 331.785,173.421 345.279 C 179.673 370.053,180.146 371.679,181.575 373.307 C 183.764 375.800,188.383 376.611,191.265 375.009 C 191.972 374.616,203.879 364.847,217.726 353.300 L 242.903 332.306 243.802 330.533 L 244.701 328.761 244.830 292.859 L 244.958 256.958 249.197 253.411 C 305.206 206.543,329.698 184.225,343.898 167.115 C 371.386 133.994,390.564 86.097,397.540 33.141 C 399.228 20.329,400.484 0.506,399.615 0.401 C 399.473 0.384,398.202 0.399,396.789 0.435 M382.152 19.589 C 382.083 20.331,381.901 22.498,381.749 24.406 C 377.817 73.657,358.306 124.485,330.679 157.449 C 316.591 174.258,288.687 199.309,226.204 251.241 C 212.992 262.223,189.094 281.681,168.978 297.836 C 154.217 309.691,156.054 308.628,152.344 307.460 C 135.241 302.075,98.682 265.606,92.908 248.170 C 91.665 244.418,90.912 245.805,101.098 233.078 C 120.063 209.382,149.520 173.222,152.216 170.328 C 152.808 169.692,153.567 168.767,153.902 168.272 C 155.665 165.669,183.346 132.956,196.510 117.919 C 241.340 66.712,260.788 51.630,303.019 35.320 C 326.851 26.117,361.097 18.560,380.285 18.270 L 382.278 18.240 382.152 19.589 M272.190 82.503 C 244.477 86.028,228.307 116.138,240.759 141.027 C 257.165 173.818,304.470 170.387,316.124 135.560 C 325.455 107.674,301.523 78.772,272.190 82.503 M283.338 99.412 C 301.634 103.940,307.866 127.449,294.245 140.557 C 279.554 154.693,255.161 145.745,253.072 125.453 C 251.729 112.413,260.724 100.959,273.988 98.818 C 275.725 98.538,281.215 98.887,283.338 99.412 M127.004 174.888 C 120.212 183.202,109.276 196.765,101.005 207.129 C 95.846 213.593,91.458 218.882,91.252 218.882 C 90.614 218.882,47.925 208.058,47.694 207.837 C 47.573 207.723,54.159 199.641,62.328 189.877 L 77.182 172.126 103.221 172.126 L 129.259 172.126 127.004 174.888 M90.996 276.467 C 101.936 290.477,118.045 305.802,130.768 314.302 C 133.584 316.184,133.618 316.219,133.031 316.598 C 130.935 317.948,116.285 326.525,116.073 326.525 C 115.931 326.525,114.884 326.042,113.747 325.450 C 102.316 319.503,79.424 296.405,74.471 285.819 L 73.701 284.174 78.897 275.431 L 84.094 266.688 86.477 270.210 C 87.788 272.147,89.821 274.963,90.996 276.467 M228.378 297.046 L 228.369 323.057 210.459 338.023 C 195.820 350.256,192.516 352.906,192.366 352.538 C 192.175 352.070,181.374 309.524,181.374 309.240 C 181.374 309.152,187.241 304.347,194.412 298.564 C 201.583 292.781,212.132 284.221,217.855 279.543 C 223.577 274.864,228.288 271.035,228.324 271.035 C 228.359 271.034,228.384 282.739,228.378 297.046 M50.597 305.390 C 47.426 307.717,42.214 310.668,34.811 314.330 C 23.161 320.091,18.134 323.552,13.770 328.819 C 4.058 340.540,0.681 355.216,0.333 387.219 L 0.190 400.257 4.655 400.248 C 50.618 400.160,69.870 393.637,82.348 373.924 C 83.153 372.653,85.520 368.139,87.609 363.895 C 91.497 355.992,93.562 352.190,95.385 349.579 C 95.953 348.765,96.371 348.056,96.314 348.004 C 95.476 347.239,83.107 338.393,82.983 338.470 C 82.679 338.657,79.336 343.766,77.517 346.821 C 76.550 348.446,74.017 353.243,71.888 357.482 C 66.543 368.128,64.625 370.917,60.758 373.668 C 53.867 378.568,39.258 381.928,21.516 382.693 L 17.469 382.867 17.470 381.735 C 17.476 372.745,18.857 357.886,20.165 352.748 C 23.102 341.210,26.128 337.727,39.049 331.012 C 48.837 325.926,53.231 323.325,59.151 319.112 C 60.669 318.032,61.861 317.014,61.801 316.851 C 61.714 316.616,53.100 305.152,52.421 304.367 C 52.329 304.261,51.509 304.722,50.597 305.390 " stroke="none" fill="#EF5722" fill-rule="evenodd"></path>
</g></svg>